<?xml version="1.0" encoding="utf-8"?>
<!-- Generator: Adobe Illustrator 22.0.0, SVG Export Plug-In . SVG Version: 6.00 Build 0)  -->
<svg version="1.1" id="Layer_1" xmlns="http://www.w3.org/2000/svg" xmlns:xlink="http://www.w3.org/1999/xlink" x="0px" y="0px"
	 viewBox="0 0 100 125" style="enable-background:new 0 0 100 125;" xml:space="preserve">
<path d="M50,66c-7.7,0-14-6.3-14-14V24c0-7.7,6.3-14,14-14s14,6.3,14,14v28C64,59.7,57.7,66,50,66z M50,14c-5.5,0-10,4.5-10,10v28
	c0,5.5,4.5,10,10,10s10-4.5,10-10V24C60,18.5,55.5,14,50,14z M70,48c-1.1,0-2,0.9-2,2v2c0,9.9-8.1,18-18,18s-18-8.1-18-18v-2
	c0-1.1-0.9-2-2-2s-2,0.9-2,2v2c0,11.5,8.8,20.9,20,21.9V86h-7c-1.1,0-2,0.9-2,2s0.9,2,2,2h18c1.1,0,2-0.9,2-2s-0.9-2-2-2h-7V73.9
	c11.2-1,20-10.4,20-21.9v-2C72,48.9,71.1,48,70,48z"/>
</svg>
